<svg width="167" height="28" viewBox="0 0 167 28" xmlns="http://www.w3.org/2000/svg" xmlns:xlink="http://www.w3.org/1999/xlink"><defs><path id="a" d="M0 .19v11.403h9.313V.19H0z"/><path id="c" d="M.007 12.78H64.69V.023H.008z"/></defs><g fill="none" fill-rule="evenodd"><g transform="translate(0 15.355)"><mask id="b" fill="#fff"><use xlink:href="#a"/></mask><path d="M8.467 3.102C8.467 1.417 7.11.19 5.37.19H0v11.403h5.8c2.02 0 3.513-1.44 3.513-3.37 0-1.424-.796-2.52-2.32-2.83.927-.36 1.474-1.194 1.474-2.29m-2.816.605c0 .605-.414 1.03-.977 1.03H3.148V2.71h1.525c.563 0 .978.44.978.998m.63 4.22c0 .622-.497 1.113-1.176 1.113H3.148V6.866h1.94c.712 0 1.192.458 1.192 1.063" fill="#FEFEFE" mask="url(#b)"/></g><path fill="#FEFEFE" d="M12.345 15.546h8.517v2.797h-5.37v1.57h5.005v2.553h-5.004V24.2h5.5v2.748h-8.648M36.09 26.948l-6.396-12.17-6.396 12.17h3.28l.746-1.488h4.74l.745 1.488h3.28zm-5.087-3.893h-2.618l1.31-2.634 1.308 2.635zM37.3 15.546h3.147v6.167c0 1.963.812 2.585 2.04 2.585 1.225 0 2.037-.622 2.037-2.585v-6.167h3.148v6.494c0 3.452-2.386 5.072-5.186 5.072S37.3 25.492 37.3 22.04v-6.494zM53.587 18.36h-3.115v-2.814h9.313v2.814h-3.05v8.588h-3.148M70.406 15.546L67.87 19.98l-2.535-4.434h-3.38l4.358 7.362v4.04h3.115v-4.04l4.358-7.362M22.444 3.076c0-1.686-1.358-2.912-3.098-2.912h-5.37v11.402h5.8c2.022 0 3.514-1.44 3.514-3.37 0-1.423-.796-2.52-2.32-2.83.927-.36 1.474-1.194 1.474-2.29m-2.817.605c0 .606-.414 1.03-.977 1.03h-1.525V2.684h1.525c.563 0 .977.44.977.998m.63 4.22c0 .623-.497 1.114-1.176 1.114h-1.955V6.838h1.94c.712 0 1.192.458 1.192 1.063M26.487 11.566h8.65V8.818h-5.502V7.084h5.005V4.53h-5.005V2.96h5.37V.165h-8.518M37.987 9.308c.73 1.13 2.27 2.422 5.103 2.422 3.198 0 4.607-1.522 4.607-3.616 0-1.505-.746-2.568-2.8-3.288-2.17-.77-3.083-.638-3.083-1.456 0-.393.415-.703 1.26-.703.994 0 1.69.425 2.088.9l2.07-1.75C46.488.85 45.163 0 42.96 0c-2.155 0-4.143 1.16-4.143 3.42 0 1.733 1.06 2.698 2.668 3.287 1.657.622 3.148.687 3.148 1.505 0 .573-.58.818-1.54.818-1.26 0-2.303-.62-2.883-1.407l-2.22 1.685zM53.38 11.566h3.148v-8.59h3.05V.165h-9.313v2.813h3.115"/><g transform="translate(102 7)"><mask id="d" fill="#fff"><use xlink:href="#c"/></mask><path d="M1.2 9.16c0-.63.18-1.153.49-1.52.31-.37.75-.578 1.25-.578.32 0 .487.018.793.11l.072.022v.187l-.09.013c-.555.074-.73.41-.737.722 0 .382.35.69.74.69.42 0 .82-.336.82-.796 0-.753-.677-1.248-1.677-1.253C1.273 6.76.01 7.817.008 9.48c.004 1.61 1.415 3.294 4.506 3.3 3.37-.005 4.915-2.062 4.92-3.952.002-1.794-1.472-3.02-2.685-4.068-1.17-1.01-1.814-1.606-1.813-2.756 0-.413.13-.795.405-1.075.276-.28.693-.45 1.24-.45.582 0 1.083.168 1.556.594.465.418.912 1.074 1.44 2.065l.2-.034-.21-2.96h-.23l-.51.747-.09-.075C8.214.384 7.698.028 6.626.024 4.958.028 3.792 1.102 3.79 2.564c-.003 1.54 1.136 2.458 2.224 3.45 1.363 1.236 2.037 1.93 2.034 3.36 0 .774-.3 1.494-.855 2.02-.554.525-1.362.853-2.362.852-1.225 0-2.137-.328-2.74-.884-.603-.556-.89-1.332-.89-2.2zm11.78 1.91l-1.7.303-.057.274h4.766l.057-.28-1.574-.305 2.076-9.44 1.68.333 1.163 2.88.158-.037.258-3.39h-8.106l-.954 3.395.18.04L13.17 1.92l1.89-.304-2.08 9.454zM25.4 7.017l4.024-5.033 1.246-.298.067-.277h-3.16l-.07.29 1.025.317-3.39 4.83-1.474-4.768 1.424-.39.068-.28h-4.033l-.073.295 1.027.366 1.79 5.12-.863 3.88-1.543.302-.067.275h4.462l.068-.284-1.41-.303.882-4.043zM38.534 8.2l-2.34 2.833-3.566.352 2.077-9.398 1.543-.303.067-.275H31.9l-.07.283 1.382.304-2.005 9.07-1.51.305-.068.275h7.993l1.09-3.41-.18-.038zm2.415 2.87l-1.56.302-.066.275H43.8l.07-.284-1.428-.303 2.006-9.073 1.558-.303.068-.275h-4.24c-1.078 0-1.9.188-2.444.545-.543.358-.822.875-.824 1.586.007.91.58 1.215 1.074 1.223.435 0 .755-.335.756-.707 0-.345-.287-.662-.654-.663-.186 0-.404.078-.635.293l-.03.028h-.285l.008-.104c.07-.964 1.166-1.764 3.08-1.76h1.11l-2.04 9.22zM55.63 4.802l.18.04 2.24-2.924 1.89-.304-2.078 9.454-1.7.303-.057.274h4.765l.06-.28-1.575-.305 2.076-9.44 1.68.333 1.163 2.88.16-.037.255-3.39h-8.105l-.953 3.395zM46.028 9.16c0-.63.18-1.153.49-1.52.308-.37.75-.578 1.25-.578.318 0 .485.018.792.11l.072.022v.188l-.09.01c-.556.075-.73.412-.737.723 0 .382.35.69.74.69.42 0 .82-.336.82-.796 0-.754-.677-1.248-1.678-1.253-1.587.004-2.85 1.06-2.853 2.723.003 1.61 1.415 3.294 4.506 3.3 3.37-.005 4.914-2.062 4.92-3.952.002-1.794-1.472-3.02-2.685-4.068-1.17-1.01-1.814-1.606-1.813-2.756 0-.413.13-.796.405-1.075.276-.28.693-.45 1.238-.45.584 0 1.085.168 1.558.594.465.418.912 1.074 1.44 2.065l.2-.034-.21-2.96h-.23l-.512.747-.087-.074c-.522-.436-1.04-.793-2.11-.796-1.67.004-2.834 1.078-2.837 2.54-.002 1.54 1.137 2.458 2.224 3.45 1.364 1.236 2.037 1.93 2.035 3.36 0 .774-.3 1.494-.855 2.02-.554.525-1.362.853-2.362.852-1.226 0-2.138-.328-2.74-.884-.604-.555-.89-1.332-.89-2.2z" fill="#FEFEFE" mask="url(#d)"/></g><path d="M87.768 13.24c0-.724-.552-1.24-1.277-1.24H85v5h1.678c.825 0 1.448-.617 1.448-1.428 0-.66-.402-1.205-1.04-1.29.438-.144.682-.553.682-1.04zm-2.395 1.256h1.255c.66 0 1.125.46 1.125 1.076 0 .617-.473 1.083-1.097 1.083h-1.283v-2.16zm2.022-1.24c0 .516-.395.896-.932.896h-1.09v-1.808h1.097c.538 0 .925.387.925.91zm4.31 1.635l1.74-2.89h-.415l-1.513 2.518L90.005 12h-.416l1.74 2.89V17h.374v-2.11z" fill="#FEFEFE"/></g></svg>
