<svg width="393" height="292" viewBox="0 0 393 292" xmlns="http://www.w3.org/2000/svg" xmlns:xlink="http://www.w3.org/1999/xlink"><title>1F2ECB41-31A6-47AD-90EA-82DBAE103C8B</title><defs><path id="a" d="M0 .02v61.416h49.29V.02H0z"/><path id="c" d="M.04 78.414h380.643V.15H.04z"/></defs><g fill="none"><g transform="translate(0 84)"><mask id="b" ><use xlink:href="#a"/></mask><path d="M44.817 15.705c0-9.077-7.19-15.685-16.4-15.685H-.002v61.416h30.697c10.7 0 18.594-7.754 18.594-18.15 0-7.668-4.21-13.572-12.278-15.245 4.91-1.938 7.805-6.43 7.805-12.335m-14.91 3.26c0 3.26-2.192 5.55-5.175 5.55h-8.068V13.59h8.068c2.983 0 5.176 2.378 5.176 5.374m3.33 22.735c0 3.347-2.63 5.99-6.225 5.99h-10.35V35.97h10.263c3.77 0 6.313 2.468 6.313 5.73" mask="url(#b)"/></g><path d="M66 84h45.296v15.21H82.743v8.54h26.614v13.878H82.743v9.43H112V146H66M192 146l-34-66-34 66h17.44l3.963-8.072h25.192L174.56 146H192zm-27.04-21.114h-13.92l6.96-14.28 6.96 14.28zM199 84h16.693v33.06c0 10.524 4.305 13.857 10.807 13.857 6.502 0 10.806-3.333 10.806-13.856V84H254v34.815C254 137.32 241.348 146 226.5 146s-27.5-8.68-27.5-27.185V84zM285.726 99.3H269V84h50v15.3h-16.37V146h-16.904M375 84l-13.5 24.107L348 84h-18l23.205 40.03V146h16.59v-21.97L393 84M119.462 16.834C119.462 7.67 112.168 1 102.825 1H74v62h31.14C115.992 63 124 55.172 124 44.676c0-7.74-4.27-13.7-12.455-15.39 4.98-1.956 7.917-6.492 7.917-12.452m-15.123 3.29c0 3.292-2.225 5.604-5.252 5.604h-8.183v-11.03h8.183c3.027 0 5.25 2.402 5.25 5.426m3.38 22.95c0 3.382-2.67 6.05-6.316 6.05H90.905v-11.83h10.41c3.824 0 6.403 2.49 6.403 5.78M141 63h46V48.057h-29.257v-9.43h26.614V24.75h-26.614v-8.54h28.553V1H141M202 49.995C205.905 56.06 214.157 63 229.332 63 246.457 63 254 54.827 254 43.582c0-8.084-3.993-13.796-14.997-17.66-11.624-4.13-16.505-3.43-16.505-7.822 0-2.11 2.22-3.778 6.744-3.778 5.325 0 9.05 2.285 11.18 4.832l11.092-9.4C247.52 4.568 240.424 0 228.62 0c-11.535 0-22.183 6.238-22.183 18.363 0 9.314 5.68 14.5 14.287 17.662 8.873 3.338 16.86 3.69 16.86 8.083 0 3.076-3.107 4.393-8.252 4.393-6.745 0-12.335-3.337-15.442-7.555L202 49.995zM284.726 63h16.903V16.3H318V1h-50v15.3h16.726M187.158 182.467c0-2.608-2.026-4.467-4.684-4.467H177v18h6.157c3.028 0 5.316-2.222 5.316-5.14 0-2.375-1.474-4.338-3.815-4.648 1.605-.516 2.5-1.99 2.5-3.745zm-8.79 4.52h4.605c2.42 0 4.132 1.653 4.132 3.874 0 2.22-1.736 3.9-4.026 3.9h-4.712v-7.773zm7.422-4.468c0 1.858-1.448 3.228-3.42 3.228h-4.002v-6.51h4.026c1.975 0 3.396 1.395 3.396 3.28zm15.816 5.888L208 178h-1.527l-5.552 9.064L195.37 178h-1.526l6.396 10.408V196h1.368v-7.592z"/><g transform="translate(6 213)"><mask id="d"><use xlink:href="#c"/></mask><path d="M7.067 56.216c0-3.876 1.057-7.083 2.88-9.342 1.816-2.26 4.42-3.542 7.353-3.54 1.88-.004 2.865.108 4.67.68l.42.132v1.148l-.522.07c-3.274.455-4.305 2.523-4.34 4.433.003 2.34 2.06 4.234 4.353 4.24 2.478-.006 4.82-2.072 4.824-4.892-.003-4.617-3.982-7.65-9.87-7.685C7.488 41.486.062 47.97.04 58.17c.022 9.88 8.33 20.213 26.517 20.245 19.825-.027 28.922-12.65 28.948-24.245.02-11.006-8.656-18.527-15.794-24.96-6.89-6.196-10.678-9.855-10.668-16.914 0-2.533.762-4.88 2.383-6.595 1.62-1.72 4.08-2.75 7.288-2.747 3.434-.01 6.382 1.022 9.167 3.64 2.733 2.56 5.362 6.586 8.47 12.67l1.177-.205L56.29.892h-1.353L51.93 5.48l-.522-.458C48.335 2.357 45.298.166 38.994.15c-9.82.022-16.68 6.614-16.696 15.59-.012 9.447 6.69 15.074 13.092 21.154 8.022 7.59 11.985 11.844 11.967 20.625.002 4.75-1.764 9.167-5.027 12.39-3.263 3.225-8.015 5.237-13.903 5.234-7.213.003-12.577-2.013-16.127-5.426-3.55-3.41-5.237-8.17-5.233-13.502zm69.316 11.71l-10.002 1.86-.335 1.68 28.042-.002.344-1.723-9.262-1.86 12.22-57.933 9.886 2.05 6.846 17.674.93-.23 1.512-20.793H68.86L63.25 29.47l1.06.24L77.5 11.78l11.117-1.863-12.234 58.01zm73.086-24.87l23.682-30.885 7.328-1.823.398-1.7h-18.59l-.418 1.792 6.028 1.935-19.954 29.633-8.668-29.25 8.38-2.396.4-1.715h-23.73l-.428 1.816 6.04 2.244 10.522 31.41-5.072 23.802-9.08 1.862-.392 1.684h26.254l.41-1.742-8.31-1.858 5.2-24.81zm77.29 7.252L212.996 67.7l-20.992 2.16 12.22-57.666 9.08-1.862.395-1.685h-25.975l-.41 1.743 8.124 1.86-11.798 55.666-8.893 1.863-.397 1.686H221.4l6.413-20.92-1.054-.238zm14.213 17.613l-9.173 1.863-.394 1.683h26.35l.406-1.74-8.404-1.858 11.8-55.676 9.173-1.86.398-1.685H246.17c-6.336-.003-11.176 1.157-14.374 3.348-3.194 2.195-4.836 5.37-4.848 9.732.037 5.578 3.414 7.453 6.318 7.498 2.56-.006 4.446-2.057 4.448-4.336-.005-2.116-1.688-4.065-3.85-4.07-1.093.002-2.375.48-3.732 1.798l-.175.17h-1.678l.043-.637c.404-5.913 6.86-10.822 18.127-10.793h6.538L240.973 67.92zm86.4-38.45l1.06.24 13.188-17.932 11.12-1.86-12.233 58.01-10.002 1.858-.336 1.68h28.04l.346-1.725-9.264-1.86 12.216-57.936 9.887 2.05 6.846 17.676.934-.23 1.51-20.793H332.98l-5.61 20.824zm-56.517 26.744c0-3.874 1.056-7.08 2.88-9.34 1.817-2.26 4.418-3.544 7.353-3.54 1.878-.004 2.864.108 4.668.68l.422.132v1.15l-.525.07c-3.272.453-4.303 2.52-4.34 4.43.007 2.34 2.064 4.236 4.357 4.24 2.475-.005 4.816-2.07 4.82-4.89-.004-4.62-3.98-7.65-9.87-7.686-9.343.026-16.77 6.51-16.792 16.71.02 9.877 8.33 20.213 26.518 20.245 19.823-.027 28.92-12.65 28.944-24.245.02-11.006-8.654-18.527-15.792-24.96-6.893-6.196-10.677-9.855-10.67-16.914 0-2.533.763-4.88 2.385-6.595 1.62-1.72 4.078-2.75 7.287-2.747 3.434-.01 6.383 1.022 9.168 3.64 2.732 2.56 5.363 6.586 8.467 12.67l1.178-.205L320.082.892h-1.356l-3.008 4.588-.52-.457C312.123 2.356 309.085.166 302.784.15c-9.822.02-16.682 6.614-16.698 15.59-.01 9.445 6.69 15.074 13.09 21.154 8.025 7.59 11.987 11.845 11.97 20.625 0 4.75-1.765 9.17-5.03 12.39-3.26 3.224-8.013 5.237-13.9 5.235-7.214 0-12.58-2.014-16.13-5.427-3.548-3.408-5.234-8.17-5.23-13.504z"  mask="url(#d)"/></g></g></svg>
